<svg aria-hidden="true" style="width:0;height:0;position:absolute;overflow:hidden" xmlns="http://www.w3.org/2000/svg"><defs><symbol id="icon-logo_footer-icon" viewBox="0 0 47 32"><path fill="#edb91b" style="fill:var(--color2,#edb91b)" d="M31.455 26.285c-1.116 1.86-3.811 1.86-4.927 0L10.97.355h30.969c2.233 0 3.613 2.436 2.464 4.351L31.456 26.285z"/><path fill="#fff" style="fill:var(--color1,#fff)" d="M15.558 26.285c1.116 1.86 3.811 1.86 4.927 0L36.043.355H5.074c-2.233 0-3.612 2.436-2.464 4.351l12.947 21.579z"/><path fill="#eef0e7" style="fill:var(--color3,#eef0e7)" d="M10.97.355h25.073L23.507 21.249 10.969.355z"/></symbol><symbol id="icon-menu" viewBox="0 0 44 32"><path d="M0 0v4.431h44.308V0H0zm0 13.292v4.431h44.308v-4.431H0zm0 17.723v-4.431h44.308v4.431H0z"/></symbol><symbol id="icon-logo_header-icon" viewBox="0 0 49 32"><path fill="#ffd723" style="fill:var(--color4,#ffd723)" d="M32.578 27.097c-1.156 1.926-3.947 1.926-5.103 0L11.362.241h32.075c2.313 0 3.742 2.523 2.552 4.507l-13.41 22.349z"/><path fill="#fff" style="fill:var(--color1,#fff)" d="M16.113 27.097c1.156 1.926 3.947 1.926 5.103 0L37.329.241H5.254c-2.313 0-3.742 2.523-2.552 4.507l13.41 22.349z"/><path fill="#f6f6f6" style="fill:var(--color5,#f6f6f6)" d="M11.361.241H37.33L24.347 21.882 11.362.241z"/></symbol><symbol id="icon-twitter" viewBox="0 0 26 28"><path d="M25.312 6.375a10.85 10.85 0 0 1-2.531 2.609c.016.219.016.438.016.656 0 6.672-5.078 14.359-14.359 14.359-2.859 0-5.516-.828-7.75-2.266.406.047.797.063 1.219.063 2.359 0 4.531-.797 6.266-2.156a5.056 5.056 0 0 1-4.719-3.5c.313.047.625.078.953.078.453 0 .906-.063 1.328-.172a5.048 5.048 0 0 1-4.047-4.953v-.063a5.093 5.093 0 0 0 2.281.641 5.044 5.044 0 0 1-2.25-4.203c0-.938.25-1.797.688-2.547a14.344 14.344 0 0 0 10.406 5.281 5.708 5.708 0 0 1-.125-1.156 5.045 5.045 0 0 1 5.047-5.047 5.03 5.03 0 0 1 3.687 1.594 9.943 9.943 0 0 0 3.203-1.219 5.032 5.032 0 0 1-2.219 2.781c1.016-.109 2-.391 2.906-.781z"/></symbol><symbol id="icon-facebook" viewBox="0 0 16 28"><path d="M14.984.187v4.125h-2.453c-1.922 0-2.281.922-2.281 2.25v2.953h4.578l-.609 4.625H10.25v11.859H5.469V14.14H1.485V9.515h3.984V6.109C5.469 2.156 7.891 0 11.422 0c1.687 0 3.141.125 3.563.187z"/></symbol><symbol id="icon-google-plus" viewBox="0 0 36 28"><path d="M22.453 14.266c0 6.547-4.391 11.188-11 11.188C5.125 25.454 0 20.329 0 14.001S5.125 2.548 11.453 2.548c3.094 0 5.672 1.125 7.672 3l-3.109 2.984c-.844-.812-2.328-1.766-4.562-1.766C7.548 6.766 4.36 10 4.36 14s3.187 7.234 7.094 7.234c4.531 0 6.234-3.266 6.5-4.937h-6.5v-3.938h10.813c.109.578.187 1.156.187 1.906zM36 12.359v3.281h-3.266v3.266h-3.281V15.64h-3.266v-3.281h3.266V9.093h3.281v3.266H36z"/></symbol><symbol id="icon-caret-down" viewBox="0 0 16 28"><path d="M16 11a.99.99 0 0 1-.297.703l-7 7C8.516 18.89 8.265 19 8 19s-.516-.109-.703-.297l-7-7A.996.996 0 0 1 0 11c0-.547.453-1 1-1h14c.547 0 1 .453 1 1z"/></symbol><symbol id="icon-caret-right" viewBox="0 0 9 28"><path d="M9 14a.99.99 0 0 1-.297.703l-7 7A.996.996 0 0 1 1 22c-.547 0-1-.453-1-1V7c0-.547.453-1 1-1a.99.99 0 0 1 .703.297l7 7A.996.996 0 0 1 9 14z"/></symbol><symbol id="icon-linkedin" viewBox="0 0 24 28"><path d="M5.453 9.766V25.25H.297V9.766h5.156zm.328-4.782c.016 1.484-1.109 2.672-2.906 2.672h-.031C1.11 7.656 0 6.468 0 4.984c0-1.516 1.156-2.672 2.906-2.672 1.766 0 2.859 1.156 2.875 2.672zM24 16.375v8.875h-5.141v-8.281c0-2.078-.75-3.5-2.609-3.5-1.422 0-2.266.953-2.641 1.875-.125.344-.172.797-.172 1.266v8.641H8.296c.063-14.031 0-15.484 0-15.484h5.141v2.25h-.031c.672-1.062 1.891-2.609 4.672-2.609 3.391 0 5.922 2.219 5.922 6.969z"/></symbol></defs></svg>