<svg aria-hidden="true" style="position: absolute; width: 0; height: 0; overflow: hidden;" version="1.1" xmlns="http://www.w3.org/2000/svg" xmlns:xlink="http://www.w3.org/1999/xlink">
<defs>
<symbol id="icon-logo_footer-icon" viewBox="0 0 47 32">
<path fill="#edb91b" style="fill: var(--color2, #edb91b)" d="M31.455 26.285c-1.116 1.86-3.811 1.86-4.927 0l-15.558-25.93h30.969c2.233 0 3.613 2.436 2.464 4.351l-12.947 21.579z"></path>
<path fill="#fff" style="fill: var(--color1, #fff)" d="M15.558 26.285c1.116 1.86 3.811 1.86 4.927 0l15.558-25.93h-30.969c-2.233 0-3.612 2.436-2.464 4.351l12.947 21.579z"></path>
<path fill="#eef0e7" style="fill: var(--color3, #eef0e7)" d="M10.97 0.355h25.073l-12.536 20.894-12.538-20.894z"></path>
</symbol>
<symbol id="icon-menu" viewBox="0 0 44 32">
<path d="M0 0v4.431h44.308v-4.431h-44.308zM0 13.292v4.431h44.308v-4.431h-44.308zM0 31.015v-4.431h44.308v4.431h-44.308z"></path>
</symbol>
<symbol id="icon-logo_header-icon" viewBox="0 0 49 32">
<path fill="#ffd723" style="fill: var(--color4, #ffd723)" d="M32.578 27.097c-1.156 1.926-3.947 1.926-5.103 0l-16.113-26.856h32.075c2.313 0 3.742 2.523 2.552 4.507l-13.41 22.349z"></path>
<path fill="#fff" style="fill: var(--color1, #fff)" d="M16.113 27.097c1.156 1.926 3.947 1.926 5.103 0l16.113-26.856h-32.075c-2.313 0-3.742 2.523-2.552 4.507l13.41 22.349z"></path>
<path fill="#f6f6f6" style="fill: var(--color5, #f6f6f6)" d="M11.361 0.241h25.969l-12.983 21.641-12.985-21.641z"></path>
</symbol>
<symbol id="icon-twitter" viewBox="0 0 26 28">
<path d="M25.312 6.375c-0.688 1-1.547 1.891-2.531 2.609 0.016 0.219 0.016 0.438 0.016 0.656 0 6.672-5.078 14.359-14.359 14.359-2.859 0-5.516-0.828-7.75-2.266 0.406 0.047 0.797 0.063 1.219 0.063 2.359 0 4.531-0.797 6.266-2.156-2.219-0.047-4.078-1.5-4.719-3.5 0.313 0.047 0.625 0.078 0.953 0.078 0.453 0 0.906-0.063 1.328-0.172-2.312-0.469-4.047-2.5-4.047-4.953v-0.063c0.672 0.375 1.453 0.609 2.281 0.641-1.359-0.906-2.25-2.453-2.25-4.203 0-0.938 0.25-1.797 0.688-2.547 2.484 3.062 6.219 5.063 10.406 5.281-0.078-0.375-0.125-0.766-0.125-1.156 0-2.781 2.25-5.047 5.047-5.047 1.453 0 2.766 0.609 3.687 1.594 1.141-0.219 2.234-0.641 3.203-1.219-0.375 1.172-1.172 2.156-2.219 2.781 1.016-0.109 2-0.391 2.906-0.781z"></path>
</symbol>
<symbol id="icon-facebook" viewBox="0 0 16 28">
<path d="M14.984 0.187v4.125h-2.453c-1.922 0-2.281 0.922-2.281 2.25v2.953h4.578l-0.609 4.625h-3.969v11.859h-4.781v-11.859h-3.984v-4.625h3.984v-3.406c0-3.953 2.422-6.109 5.953-6.109 1.687 0 3.141 0.125 3.563 0.187z"></path>
</symbol>
<symbol id="icon-google-plus" viewBox="0 0 36 28">
<path d="M22.453 14.266c0 6.547-4.391 11.188-11 11.188-6.328 0-11.453-5.125-11.453-11.453s5.125-11.453 11.453-11.453c3.094 0 5.672 1.125 7.672 3l-3.109 2.984c-0.844-0.812-2.328-1.766-4.562-1.766-3.906 0-7.094 3.234-7.094 7.234s3.187 7.234 7.094 7.234c4.531 0 6.234-3.266 6.5-4.937h-6.5v-3.938h10.813c0.109 0.578 0.187 1.156 0.187 1.906zM36 12.359v3.281h-3.266v3.266h-3.281v-3.266h-3.266v-3.281h3.266v-3.266h3.281v3.266h3.266z"></path>
</symbol>
<symbol id="icon-caret-down" viewBox="0 0 16 28">
<path d="M16 11c0 0.266-0.109 0.516-0.297 0.703l-7 7c-0.187 0.187-0.438 0.297-0.703 0.297s-0.516-0.109-0.703-0.297l-7-7c-0.187-0.187-0.297-0.438-0.297-0.703 0-0.547 0.453-1 1-1h14c0.547 0 1 0.453 1 1z"></path>
</symbol>
<symbol id="icon-caret-right" viewBox="0 0 9 28">
<path d="M9 14c0 0.266-0.109 0.516-0.297 0.703l-7 7c-0.187 0.187-0.438 0.297-0.703 0.297-0.547 0-1-0.453-1-1v-14c0-0.547 0.453-1 1-1 0.266 0 0.516 0.109 0.703 0.297l7 7c0.187 0.187 0.297 0.438 0.297 0.703z"></path>
</symbol>
<symbol id="icon-linkedin" viewBox="0 0 24 28">
<path d="M5.453 9.766v15.484h-5.156v-15.484h5.156zM5.781 4.984c0.016 1.484-1.109 2.672-2.906 2.672v0h-0.031c-1.734 0-2.844-1.188-2.844-2.672 0-1.516 1.156-2.672 2.906-2.672 1.766 0 2.859 1.156 2.875 2.672zM24 16.375v8.875h-5.141v-8.281c0-2.078-0.75-3.5-2.609-3.5-1.422 0-2.266 0.953-2.641 1.875-0.125 0.344-0.172 0.797-0.172 1.266v8.641h-5.141c0.063-14.031 0-15.484 0-15.484h5.141v2.25h-0.031c0.672-1.062 1.891-2.609 4.672-2.609 3.391 0 5.922 2.219 5.922 6.969z"></path>
</symbol>
</defs>
</svg>
